<svg width="81" height="12" viewBox="0 0 81 12" fill="none" xmlns="http://www.w3.org/2000/svg">
<path d="M9.17998 11H6.79498L3.04498 6.08004V11H0.974976V0.500039H3.04498V5.13504L6.64498 0.500039H9.02998L5.14498 5.60004L9.17998 11Z" fill="#333333"/>
<path d="M18.1449 9.63504C17.0849 10.685 15.7949 11.21 14.2749 11.21C12.7549 11.21 11.4649 10.685 10.4049 9.63504C9.35494 8.57504 8.82994 7.28004 8.82994 5.75004C8.82994 4.22004 9.35494 2.93004 10.4049 1.88004C11.4649 0.820039 12.7549 0.290039 14.2749 0.290039C15.7949 0.290039 17.0849 0.820039 18.1449 1.88004C19.2049 2.93004 19.7349 4.22004 19.7349 5.75004C19.7349 7.28004 19.2049 8.57504 18.1449 9.63504ZM11.8599 8.22504C12.5099 8.86504 13.3149 9.18504 14.2749 9.18504C15.2349 9.18504 16.0399 8.86504 16.6899 8.22504C17.3399 7.57504 17.6649 6.75004 17.6649 5.75004C17.6649 4.75004 17.3399 3.92504 16.6899 3.27504C16.0399 2.62504 15.2349 2.30004 14.2749 2.30004C13.3149 2.30004 12.5099 2.62504 11.8599 3.27504C11.2099 3.92504 10.8849 4.75004 10.8849 5.75004C10.8849 6.75004 11.2099 7.57504 11.8599 8.22504Z" fill="#333333"/>
<path d="M31.4648 0.500039V11H29.4098V4.19004L26.4548 9.06504H26.2148L23.2598 4.20504V11H21.1898V0.500039H23.3198L26.3348 5.46504L29.3348 0.500039H31.4648Z" fill="#333333"/>
<path d="M41.2663 0.500039V11H39.1963V2.48004H35.4913V11H33.4213V0.500039H41.2663Z" fill="#333333"/>
<path d="M49.9711 11L49.3411 9.11004H45.1561L44.5261 11H42.2911L45.9661 0.500039H48.5311L52.2211 11H49.9711ZM45.8161 7.17504H48.6961L47.2561 2.88504L45.8161 7.17504Z" fill="#333333"/>
<path d="M59.2106 0.500039H61.2656V11H59.2106V6.65004H55.3106V11H53.2406V0.500039H55.3106V4.67004H59.2106V0.500039Z" fill="#333333"/>
<path d="M69.2912 11V4.59504L64.7912 11H63.2162V0.500039H65.2862V6.92004L69.7862 0.500039H71.3612V11H69.2912Z" fill="#333333"/>
<path d="M80.719 0.500039V11H78.649V7.35504H77.464L75.049 11H72.724L75.289 7.13004C74.619 6.89004 74.074 6.48004 73.654 5.90004C73.234 5.32004 73.024 4.68004 73.024 3.98004C73.024 3.02004 73.364 2.20004 74.044 1.52004C74.724 0.840039 75.549 0.500039 76.519 0.500039H80.719ZM76.519 5.54004H78.649V2.43504H76.519C76.129 2.43504 75.794 2.58504 75.514 2.88504C75.234 3.18504 75.094 3.55004 75.094 3.98004C75.094 4.41004 75.234 4.78004 75.514 5.09004C75.794 5.39004 76.129 5.54004 76.519 5.54004Z" fill="#333333"/>
</svg>
