<svg width="92" height="12" viewBox="0 0 92 12" fill="none" xmlns="http://www.w3.org/2000/svg">
<path d="M6.77997 0.5H8.84997L5.69997 8.105C4.85997 10.145 3.47997 11.11 1.55997 11V9.065C2.11997 9.115 2.56997 9.04 2.90997 8.84C3.25997 8.63 3.54997 8.295 3.77997 7.835L0.344971 0.5H2.41497L4.70997 5.57L6.77997 0.5Z" fill="#333333"/>
<path d="M17.8141 0.5V11H15.7441V2.48H12.0391V11H9.96911V0.5H17.8141Z" fill="#333333"/>
<path d="M23.6839 0.5C24.6939 0.5 25.5439 0.84 26.2339 1.52C26.9239 2.2 27.2689 3.035 27.2689 4.025C27.2689 5.015 26.9239 5.85 26.2339 6.53C25.5439 7.21 24.6939 7.55 23.6839 7.55H21.8389V11H19.7689V0.5H23.6839ZM23.6839 5.615C24.1239 5.615 24.4889 5.465 24.7789 5.165C25.0689 4.855 25.2139 4.475 25.2139 4.025C25.2139 3.565 25.0689 3.185 24.7789 2.885C24.4889 2.585 24.1239 2.435 23.6839 2.435H21.8389V5.615H23.6839Z" fill="#333333"/>
<path d="M34.2972 11L33.6672 9.11H29.4822L28.8522 11H26.6172L30.2922 0.5H32.8572L36.5472 11H34.2972ZM30.1422 7.175H33.0222L31.5822 2.885L30.1422 7.175Z" fill="#333333"/>
<path d="M43.9118 5.555C44.8318 6.085 45.2918 6.885 45.2918 7.955C45.2918 8.845 44.9768 9.575 44.3468 10.145C43.7168 10.715 42.9418 11 42.0218 11H37.5668V0.5H41.7068C42.6068 0.5 43.3618 0.78 43.9718 1.34C44.5918 1.89 44.9018 2.595 44.9018 3.455C44.9018 4.325 44.5718 5.025 43.9118 5.555ZM41.7068 2.435H39.6368V4.745H41.7068C42.0268 4.745 42.2918 4.635 42.5018 4.415C42.7218 4.195 42.8318 3.92 42.8318 3.59C42.8318 3.26 42.7268 2.985 42.5168 2.765C42.3068 2.545 42.0368 2.435 41.7068 2.435ZM42.0218 9.065C42.3718 9.065 42.6618 8.95 42.8918 8.72C43.1218 8.48 43.2368 8.18 43.2368 7.82C43.2368 7.47 43.1218 7.18 42.8918 6.95C42.6618 6.71 42.3718 6.59 42.0218 6.59H39.6368V9.065H42.0218Z" fill="#333333"/>
<path d="M45.6044 11V9.08C46.2244 9.17 46.6894 9.045 46.9994 8.705C47.3094 8.365 47.4644 7.7 47.4644 6.71V0.5H54.6044V11H52.5494V2.48H49.5194V6.65C49.5194 7.56 49.4094 8.325 49.1894 8.945C48.9694 9.565 48.6644 10.025 48.2744 10.325C47.8944 10.625 47.4844 10.825 47.0444 10.925C46.6144 11.025 46.1344 11.05 45.6044 11Z" fill="#333333"/>
<path d="M58.6211 9.02H63.0461V11H56.5511V0.5H62.9711V2.48H58.6211V4.715H62.5961V6.665H58.6211V9.02Z" fill="#333333"/>
<path d="M70.4752 0.5H72.5302V11H70.4752V6.65H66.5752V11H64.5052V0.5H66.5752V4.67H70.4752V0.5Z" fill="#333333"/>
<path d="M80.5558 11V4.595L76.0558 11H74.4808V0.5H76.5508V6.92L81.0508 0.5H82.6258V11H80.5558Z" fill="#333333"/>
<path d="M86.6436 9.02H91.0686V11H84.5736V0.5H90.9936V2.48H86.6436V4.715H90.6186V6.665H86.6436V9.02Z" fill="#333333"/>
</svg>
