<svg width="87" height="12" viewBox="0 0 87 12" fill="none" xmlns="http://www.w3.org/2000/svg">
<path d="M6.77997 0.500039H8.84997L5.69997 8.10504C4.85997 10.145 3.47997 11.11 1.55997 11V9.06504C2.11997 9.11504 2.56997 9.04004 2.90997 8.84004C3.25997 8.63004 3.54997 8.29504 3.77997 7.83504L0.344971 0.500039H2.41497L4.70997 5.57004L6.77997 0.500039Z" fill="#333333"/>
<path d="M14.3485 11.21C12.7685 11.21 11.4635 10.685 10.4335 9.63504C9.40352 8.58504 8.88853 7.29004 8.88853 5.75004C8.88853 4.20004 9.40352 2.90504 10.4335 1.86504C11.4635 0.81504 12.7685 0.290039 14.3485 0.290039C15.2985 0.290039 16.1735 0.515039 16.9735 0.965039C17.7835 1.40504 18.4135 2.00504 18.8635 2.76504L17.0785 3.80004C16.8185 3.33004 16.4485 2.96504 15.9685 2.70504C15.4885 2.43504 14.9485 2.30004 14.3485 2.30004C13.3285 2.30004 12.5035 2.62004 11.8735 3.26004C11.2535 3.90004 10.9435 4.73004 10.9435 5.75004C10.9435 6.76004 11.2535 7.58504 11.8735 8.22504C12.5035 8.86504 13.3285 9.18504 14.3485 9.18504C14.9485 9.18504 15.4885 9.05504 15.9685 8.79504C16.4585 8.52504 16.8285 8.16004 17.0785 7.70004L18.8635 8.73504C18.4135 9.49504 17.7885 10.1 16.9885 10.55C16.1885 10.99 15.3085 11.21 14.3485 11.21Z" fill="#333333"/>
<path d="M27.0362 0.500039V2.48004H24.2012V11H22.1312V2.48004H19.3112V0.500039H27.0362Z" fill="#333333"/>
<path d="M34.18 11L33.55 9.11004H29.365L28.7351 11H26.5L30.175 0.500039H32.74L36.43 11H34.18ZM30.025 7.17504H32.905L31.465 2.88504L30.025 7.17504Z" fill="#333333"/>
<path d="M43.4196 0.500039H45.4746V11H43.4196V6.65004H39.5196V11H37.4496V0.500039H39.5196V4.67004H43.4196V0.500039Z" fill="#333333"/>
<path d="M56.2602 9.63504C55.2002 10.685 53.9102 11.21 52.3902 11.21C50.8702 11.21 49.5802 10.685 48.5202 9.63504C47.4702 8.57504 46.9452 7.28004 46.9452 5.75004C46.9452 4.22004 47.4702 2.93004 48.5202 1.88004C49.5802 0.820039 50.8702 0.290039 52.3902 0.290039C53.9102 0.290039 55.2002 0.820039 56.2602 1.88004C57.3202 2.93004 57.8502 4.22004 57.8502 5.75004C57.8502 7.28004 57.3202 8.57504 56.2602 9.63504ZM49.9752 8.22504C50.6252 8.86504 51.4302 9.18504 52.3902 9.18504C53.3502 9.18504 54.1552 8.86504 54.8052 8.22504C55.4552 7.57504 55.7802 6.75004 55.7802 5.75004C55.7802 4.75004 55.4552 3.92504 54.8052 3.27504C54.1552 2.62504 53.3502 2.30004 52.3902 2.30004C51.4302 2.30004 50.6252 2.62504 49.9752 3.27504C49.3252 3.92504 49.0002 4.75004 49.0002 5.75004C49.0002 6.75004 49.3252 7.57504 49.9752 8.22504Z" fill="#333333"/>
<path d="M65.65 5.55504C66.57 6.08504 67.03 6.88504 67.03 7.95504C67.03 8.84504 66.715 9.57504 66.085 10.145C65.455 10.715 64.68 11 63.76 11H59.305V0.500039H63.445C64.345 0.500039 65.1 0.780039 65.71 1.34004C66.33 1.89004 66.64 2.59504 66.64 3.45504C66.64 4.32504 66.31 5.02504 65.65 5.55504ZM63.445 2.43504H61.375V4.74504H63.445C63.765 4.74504 64.0301 4.63504 64.2401 4.41504C64.4601 4.19504 64.57 3.92004 64.57 3.59004C64.57 3.26004 64.4651 2.98504 64.2551 2.76504C64.0451 2.54504 63.775 2.43504 63.445 2.43504ZM63.76 9.06504C64.11 9.06504 64.4001 8.95004 64.6301 8.72004C64.8601 8.48004 64.975 8.18004 64.975 7.82004C64.975 7.47004 64.8601 7.18004 64.6301 6.95004C64.4001 6.71004 64.11 6.59004 63.76 6.59004H61.375V9.06504H63.76Z" fill="#333333"/>
<path d="M76.5921 11H74.2071L70.4571 6.08004V11H68.3871V0.500039H70.4571V5.13504L74.0571 0.500039H76.4421L72.5571 5.60004L76.5921 11Z" fill="#333333"/>
<path d="M84.6293 11L83.9993 9.11004H79.8143L79.1843 11H76.9493L80.6243 0.500039H83.1893L86.8793 11H84.6293ZM80.4743 7.17504H83.3543L81.9143 2.88504L80.4743 7.17504Z" fill="#333333"/>
</svg>
