<svg width="39" height="14" viewBox="0 0 39 14" fill="none" xmlns="http://www.w3.org/2000/svg">
<path d="M8.81998 9.02H9.94498V13.01H7.87498V11H0.974976V0.5H3.04498V9.02H6.74998V0.5H8.81998V9.02Z" fill="#333333"/>
<path d="M13.4014 9.02H17.8264V11H11.3314V0.5H17.7514V2.48H13.4014V4.715H17.3764V6.665H13.4014V9.02Z" fill="#333333"/>
<path d="M25.2555 0.5H27.3105V11H25.2555V6.65H21.3555V11H19.2855V0.5H21.3555V4.67H25.2555V0.5Z" fill="#333333"/>
<path d="M36.0111 11L35.3811 9.11H31.1961L30.5661 11H28.3311L32.0061 0.5H34.5711L38.2611 11H36.0111ZM31.8561 7.175H34.7361L33.2961 2.885L31.8561 7.175Z" fill="#333333"/>
</svg>
