<svg width="119" height="12" viewBox="0 0 119 12" fill="none" xmlns="http://www.w3.org/2000/svg">
<path d="M8.81998 0.500039V11H6.74998V2.48004H3.04498V11H0.974976V0.500039H8.81998Z" fill="#333333"/>
<path d="M17.5248 11L16.8948 9.11004H12.7098L12.0798 11H9.84478L13.5198 0.500039H16.0848L19.7748 11H17.5248ZM13.3698 7.17504H16.2498L14.8098 2.88504L13.3698 7.17504Z" fill="#333333"/>
<path d="M24.7093 0.500039C25.7193 0.500039 26.5693 0.840039 27.2593 1.52004C27.9493 2.20004 28.2943 3.03504 28.2943 4.02504C28.2943 5.01504 27.9493 5.85004 27.2593 6.53004C26.5693 7.21004 25.7193 7.55004 24.7093 7.55004H22.8643V11H20.7943V0.500039H24.7093ZM24.7093 5.61504C25.1493 5.61504 25.5143 5.46504 25.8043 5.16504C26.0943 4.85504 26.2393 4.47504 26.2393 4.02504C26.2393 3.56504 26.0943 3.18504 25.8043 2.88504C25.5143 2.58504 25.1493 2.43504 24.7093 2.43504H22.8643V5.61504H24.7093Z" fill="#333333"/>
<path d="M38.4037 9.63504C37.3437 10.685 36.0537 11.21 34.5337 11.21C33.0137 11.21 31.7237 10.685 30.6637 9.63504C29.6137 8.57504 29.0887 7.28004 29.0887 5.75004C29.0887 4.22004 29.6137 2.93004 30.6637 1.88004C31.7237 0.820039 33.0137 0.290039 34.5337 0.290039C36.0537 0.290039 37.3437 0.820039 38.4037 1.88004C39.4637 2.93004 39.9937 4.22004 39.9937 5.75004C39.9937 7.28004 39.4637 8.57504 38.4037 9.63504ZM32.1187 8.22504C32.7687 8.86504 33.5737 9.18504 34.5337 9.18504C35.4937 9.18504 36.2987 8.86504 36.9487 8.22504C37.5987 7.57504 37.9237 6.75004 37.9237 5.75004C37.9237 4.75004 37.5987 3.92504 36.9487 3.27504C36.2987 2.62504 35.4937 2.30004 34.5337 2.30004C33.5737 2.30004 32.7687 2.62504 32.1187 3.27504C31.4687 3.92504 31.1437 4.75004 31.1437 5.75004C31.1437 6.75004 31.4687 7.57504 32.1187 8.22504Z" fill="#333333"/>
<path d="M47.4186 0.500039V2.48004H43.5186V11H41.4486V0.500039H47.4186Z" fill="#333333"/>
<path d="M50.6378 9.02004H55.0628V11H48.5677V0.500039H54.9878V2.48004H50.6378V4.71504H54.6128V6.66504H50.6378V9.02004Z" fill="#333333"/>
<path d="M62.4919 0.500039H64.5469V11H62.4919V6.65004H58.5919V11H56.5219V0.500039H58.5919V4.67004H62.4919V0.500039Z" fill="#333333"/>
<path d="M68.5674 9.02004H72.9924V11H66.4974V0.500039H72.9174V2.48004H68.5674V4.71504H72.5424V6.66504H68.5674V9.02004Z" fill="#333333"/>
<path d="M78.3665 0.500039C79.3765 0.500039 80.2265 0.840039 80.9165 1.52004C81.6065 2.20004 81.9515 3.03504 81.9515 4.02504C81.9515 5.01504 81.6065 5.85004 80.9165 6.53004C80.2265 7.21004 79.3765 7.55004 78.3665 7.55004H76.5215V11H74.4515V0.500039H78.3665ZM78.3665 5.61504C78.8065 5.61504 79.1715 5.46504 79.4615 5.16504C79.7515 4.85504 79.8965 4.47504 79.8965 4.02504C79.8965 3.56504 79.7515 3.18504 79.4615 2.88504C79.1715 2.58504 78.8065 2.43504 78.3665 2.43504H76.5215V5.61504H78.3665Z" fill="#333333"/>
<path d="M88.9799 11L88.3499 9.11004H84.1649L83.5349 11H81.2999L84.9749 0.500039H87.5399L91.2299 11H88.9799ZM84.8249 7.17504H87.7049L86.2649 2.88504L84.8249 7.17504Z" fill="#333333"/>
<path d="M98.4327 0.500039V2.48004H95.5977V11H93.5277V2.48004H90.7077V0.500039H98.4327Z" fill="#333333"/>
<path d="M107.823 9.63504C106.763 10.685 105.473 11.21 103.953 11.21C102.433 11.21 101.143 10.685 100.083 9.63504C99.0327 8.57504 98.5077 7.28004 98.5077 5.75004C98.5077 4.22004 99.0327 2.93004 100.083 1.88004C101.143 0.820039 102.433 0.290039 103.953 0.290039C105.473 0.290039 106.763 0.820039 107.823 1.88004C108.883 2.93004 109.413 4.22004 109.413 5.75004C109.413 7.28004 108.883 8.57504 107.823 9.63504ZM101.538 8.22504C102.188 8.86504 102.993 9.18504 103.953 9.18504C104.913 9.18504 105.718 8.86504 106.368 8.22504C107.018 7.57504 107.343 6.75004 107.343 5.75004C107.343 4.75004 107.018 3.92504 106.368 3.27504C105.718 2.62504 104.913 2.30004 103.953 2.30004C102.993 2.30004 102.188 2.62504 101.538 3.27504C100.888 3.92504 100.563 4.75004 100.563 5.75004C100.563 6.75004 100.888 7.57504 101.538 8.22504Z" fill="#333333"/>
<path d="M114.783 0.500039C115.793 0.500039 116.643 0.840039 117.333 1.52004C118.023 2.20004 118.368 3.03504 118.368 4.02504C118.368 5.01504 118.023 5.85004 117.333 6.53004C116.643 7.21004 115.793 7.55004 114.783 7.55004H112.938V11H110.868V0.500039H114.783ZM114.783 5.61504C115.223 5.61504 115.588 5.46504 115.878 5.16504C116.168 4.85504 116.313 4.47504 116.313 4.02504C116.313 3.56504 116.168 3.18504 115.878 2.88504C115.588 2.58504 115.223 2.43504 114.783 2.43504H112.938V5.61504H114.783Z" fill="#333333"/>
</svg>
