<svg width="115" height="15" viewBox="0 0 115 15" fill="none" xmlns="http://www.w3.org/2000/svg">
<path d="M9.81 12.635C8.75 13.685 7.46 14.21 5.94 14.21C4.42 14.21 3.13 13.685 2.07 12.635C1.02 11.575 0.494995 10.28 0.494995 8.74999C0.494995 7.21999 1.02 5.92999 2.07 4.87999C3.13 3.81999 4.42 3.28999 5.94 3.28999C7.46 3.28999 8.75 3.81999 9.81 4.87999C10.87 5.92999 11.4 7.21999 11.4 8.74999C11.4 10.28 10.87 11.575 9.81 12.635ZM3.525 11.225C4.175 11.865 4.98 12.185 5.94 12.185C6.9 12.185 7.705 11.865 8.355 11.225C9.005 10.575 9.33 9.74999 9.33 8.74999C9.33 7.74999 9.005 6.92499 8.355 6.27499C7.705 5.62499 6.9 5.29999 5.94 5.29999C4.98 5.29999 4.175 5.62499 3.525 6.27499C2.875 6.92499 2.54999 7.74999 2.54999 8.74999C2.54999 9.74999 2.875 10.575 3.525 11.225Z" fill="#333333"/>
<path d="M16.8749 7.47499C17.8949 7.47499 18.7299 7.77999 19.3799 8.38999C20.0299 8.98999 20.3549 9.76999 20.3549 10.73C20.3549 11.7 20.0299 12.49 19.3799 13.1C18.7299 13.7 17.8949 14 16.8749 14H12.8549V3.49999H19.4549V5.47999H14.9249V7.47499H16.8749ZM16.8749 12.065C17.2849 12.065 17.6249 11.95 17.8949 11.72C18.1649 11.48 18.2999 11.15 18.2999 10.73C18.2999 10.31 18.1649 9.98499 17.8949 9.75499C17.6249 9.52499 17.2849 9.40999 16.8749 9.40999H14.9249V12.065H16.8749Z" fill="#333333"/>
<path d="M22.7055 14V5.47999H20.1855V3.49999H24.7605V6.94999H26.6205C27.6305 6.94999 28.4805 7.28999 29.1705 7.96999C29.8605 8.64999 30.2055 9.48499 30.2055 10.475C30.2055 11.465 29.8605 12.3 29.1705 12.98C28.4805 13.66 27.6305 14 26.6205 14H22.7055ZM24.7605 12.065H26.6205C27.0605 12.065 27.4205 11.915 27.7005 11.615C27.9905 11.315 28.1355 10.935 28.1355 10.475C28.1355 10.015 27.9905 9.63499 27.7005 9.33499C27.4205 9.03499 27.0605 8.88498 26.6205 8.88498H24.7605V12.065Z" fill="#333333"/>
<path d="M33.6309 12.02H38.0559V14H31.5609V3.49999H37.9809V5.47999H33.6309V7.71499H37.6059V9.66499H33.6309V12.02Z" fill="#333333"/>
<path d="M49.79 3.49999V14H47.735V7.18999L44.78 12.065H44.54L41.585 7.20499V14H39.515V3.49999H41.645L44.66 8.46499L47.66 3.49999H49.79Z" fill="#333333"/>
<path d="M63.3415 3.49999V14H61.2715V5.47999H57.5665V14H55.4965V3.49999H63.3415Z" fill="#333333"/>
<path d="M72.0463 14L71.4163 12.11H67.2313L66.6013 14H64.3663L68.0413 3.49999H70.6063L74.2963 14H72.0463ZM67.8913 10.175H70.7713L69.3313 5.88499L67.8913 10.175Z" fill="#333333"/>
<path d="M79.2308 3.49999C80.2408 3.49999 81.0908 3.83999 81.7808 4.51999C82.4708 5.19999 82.8158 6.03499 82.8158 7.02499C82.8158 8.01499 82.4708 8.84999 81.7808 9.52999C81.0908 10.21 80.2408 10.55 79.2308 10.55H77.3858V14H75.3158V3.49999H79.2308ZM79.2308 8.61499C79.6708 8.61499 80.0358 8.46499 80.3258 8.16499C80.6158 7.85499 80.7608 7.47499 80.7608 7.02499C80.7608 6.56499 80.6158 6.18499 80.3258 5.88499C80.0358 5.58499 79.6708 5.43499 79.2308 5.43499H77.3858V8.61499H79.2308Z" fill="#333333"/>
<path d="M90.1335 3.49999H92.1885V14H90.1335V9.64999H86.2335V14H84.1635V3.49999H86.2335V7.66999H90.1335V3.49999Z" fill="#333333"/>
<path d="M102.974 12.635C101.914 13.685 100.624 14.21 99.1041 14.21C97.5841 14.21 96.2941 13.685 95.2341 12.635C94.1841 11.575 93.6591 10.28 93.6591 8.74999C93.6591 7.21999 94.1841 5.92999 95.2341 4.87999C96.2941 3.81999 97.5841 3.28999 99.1041 3.28999C100.624 3.28999 101.914 3.81999 102.974 4.87999C104.034 5.92999 104.564 7.21999 104.564 8.74999C104.564 10.28 104.034 11.575 102.974 12.635ZM96.6891 11.225C97.3391 11.865 98.1441 12.185 99.1041 12.185C100.064 12.185 100.869 11.865 101.519 11.225C102.169 10.575 102.494 9.74999 102.494 8.74999C102.494 7.74999 102.169 6.92499 101.519 6.27499C100.869 5.62499 100.064 5.29999 99.1041 5.29999C98.1441 5.29999 97.3391 5.62499 96.6891 6.27499C96.0391 6.92499 95.7141 7.74999 95.7141 8.74999C95.7141 9.74999 96.0391 10.575 96.6891 11.225Z" fill="#333333"/>
<path d="M107.909 2.53999V0.859985H112.259V2.53999H107.909ZM112.094 14V7.59499L107.594 14H106.019V3.49999H108.089V9.91999L112.589 3.49999H114.164V14H112.094Z" fill="#333333"/>
</svg>
