<svg width="50" height="12" viewBox="0 0 50 12" fill="none" xmlns="http://www.w3.org/2000/svg">
<path d="M9.81 9.63498C8.75 10.685 7.46 11.21 5.94 11.21C4.42 11.21 3.13 10.685 2.07 9.63498C1.02 8.57498 0.494995 7.27998 0.494995 5.74998C0.494995 4.21998 1.02 2.92998 2.07 1.87998C3.13 0.819978 4.42 0.289978 5.94 0.289978C7.46 0.289978 8.75 0.819978 9.81 1.87998C10.87 2.92998 11.4 4.21998 11.4 5.74998C11.4 7.27998 10.87 8.57498 9.81 9.63498ZM3.525 8.22498C4.175 8.86498 4.98 9.18498 5.94 9.18498C6.9 9.18498 7.705 8.86498 8.355 8.22498C9.005 7.57498 9.33 6.74998 9.33 5.74998C9.33 4.74998 9.005 3.92498 8.355 3.27498C7.705 2.62498 6.9 2.29998 5.94 2.29998C4.98 2.29998 4.175 2.62498 3.525 3.27498C2.875 3.92498 2.54999 4.74998 2.54999 5.74998C2.54999 6.74998 2.875 7.57498 3.525 8.22498Z" fill="#333333"/>
<path d="M16.8749 4.47498C17.8949 4.47498 18.7299 4.77998 19.3799 5.38998C20.0299 5.98998 20.3549 6.76998 20.3549 7.72998C20.3549 8.69998 20.0299 9.48998 19.3799 10.1C18.7299 10.7 17.8949 11 16.8749 11H12.8549V0.499978H19.4549V2.47998H14.9249V4.47498H16.8749ZM16.8749 9.06498C17.2849 9.06498 17.6249 8.94998 17.8949 8.71998C18.1649 8.47998 18.2999 8.14998 18.2999 7.72998C18.2999 7.30998 18.1649 6.98498 17.8949 6.75498C17.6249 6.52498 17.2849 6.40998 16.8749 6.40998H14.9249V9.06498H16.8749Z" fill="#333333"/>
<path d="M22.7055 11V2.47998H20.1855V0.499978H24.7605V3.94998H26.6205C27.6305 3.94998 28.4805 4.28998 29.1705 4.96998C29.8605 5.64998 30.2055 6.48498 30.2055 7.47498C30.2055 8.46498 29.8605 9.29998 29.1705 9.97998C28.4805 10.66 27.6305 11 26.6205 11H22.7055ZM24.7605 9.06498H26.6205C27.0605 9.06498 27.4205 8.91498 27.7005 8.61498C27.9905 8.31498 28.1355 7.93498 28.1355 7.47498C28.1355 7.01498 27.9905 6.63498 27.7005 6.33498C27.4205 6.03498 27.0605 5.88498 26.6205 5.88498H24.7605V9.06498Z" fill="#333333"/>
<path d="M33.6309 9.01998H38.0559V11H31.5609V0.499978H37.9809V2.47998H33.6309V4.71498H37.6059V6.66498H33.6309V9.01998Z" fill="#333333"/>
<path d="M49.79 0.499978V11H47.735V4.18998L44.78 9.06498H44.54L41.585 4.20498V11H39.515V0.499978H41.645L44.66 5.46498L47.66 0.499978H49.79Z" fill="#333333"/>
</svg>
