<svg width="16" height="16" viewBox="0 0 16 16" fill="none" xmlns="http://www.w3.org/2000/svg">
<path d="M16 16L0 16L0 0L16 0L16 16Z" fill="white"/>
<path fill-rule="evenodd" clip-rule="evenodd" d="M13.7071 10.7071C13.3166 11.0976 12.6834 11.0976 12.2929 10.7071L7.29289 5.70708C6.90237 5.31655 6.90237 4.68339 7.29289 4.29286C7.68342 3.90234 8.31658 3.90234 8.70711 4.29286L13.7071 9.29286C14.0976 9.68339 14.0976 10.3166 13.7071 10.7071Z" fill="#333333"/>
<path fill-rule="evenodd" clip-rule="evenodd" d="M2.29289 10.7071C2.68342 11.0976 3.31658 11.0976 3.70711 10.7071L8.70711 5.70708C9.09763 5.31655 9.09763 4.68339 8.70711 4.29286C8.31658 3.90234 7.68342 3.90234 7.29289 4.29286L2.29289 9.29286C1.90237 9.68339 1.90237 10.3166 2.29289 10.7071Z" fill="#333333"/>
</svg>
