<svg width="24" height="24" viewBox="0 0 24 24" fill="none" xmlns="http://www.w3.org/2000/svg">
<path d="M11.9905 2C12.7945 2 13.4651 2.65177 13.4651 3.45577C13.4651 3.54333 13.4574 3.62909 13.4426 3.71239C16.266 4.36243 18.3713 6.89144 18.3713 9.91218V11.6704L18.3705 11.8815C18.3648 13.2874 18.3576 15.0808 19.5623 15.6123C20.5502 16.0481 20.5474 17.234 20.5456 17.9804L20.5454 18.0701H3.4544L3.45426 17.9804C3.45247 17.234 3.44964 16.0481 4.43752 15.6123C5.64227 15.0808 5.63502 13.2874 5.62935 11.8815L5.62859 11.6704V9.91218C5.62859 6.89144 7.7339 4.36243 10.5573 3.71239C10.5424 3.62909 10.5347 3.54333 10.5347 3.45577C10.5347 2.65177 11.1865 2 11.9905 2Z" fill="#AFB3BB"/>
<path fill-rule="evenodd" clip-rule="evenodd" d="M8.46753 19.1666C8.86076 20.7519 10.2932 21.9269 12 21.9269C13.7069 21.9269 15.1393 20.7519 15.5326 19.1666H8.46753Z" fill="#AFB3BB"/>
</svg>
