<svg width="103" height="26" viewBox="0 0 103 26" fill="none" xmlns="http://www.w3.org/2000/svg">
<g filter="url(#filter0_d_2_1734)">
<path d="M10.36 0.60016C12.008 0.60016 13.4 1.16016 14.536 2.28016C15.672 3.40016 16.24 4.76016 16.24 6.36016C16.24 7.96016 15.672 9.32016 14.536 10.4402C13.4 11.5602 12.008 12.1202 10.36 12.1202H7.84V17.4002H4V0.60016H10.36ZM10.36 8.52016C10.952 8.52016 11.44 8.31216 11.824 7.89616C12.208 7.48016 12.4 6.96816 12.4 6.36016C12.4 5.75216 12.208 5.24016 11.824 4.82416C11.44 4.40816 10.952 4.20016 10.36 4.20016H7.84V8.52016H10.36Z" fill="#333333"/>
<path d="M26.9883 17.4002L23.8202 11.8802H21.9963V17.4002H18.1562V0.60016H24.8762C26.4762 0.60016 27.8363 1.16016 28.9563 2.28016C30.0763 3.40016 30.6363 4.76016 30.6363 6.36016C30.6363 7.38416 30.3483 8.33616 29.7723 9.21616C29.2122 10.0802 28.4683 10.7522 27.5403 11.2322L31.1163 17.4002H26.9883ZM21.9963 4.20016V8.52016H24.8762C25.4042 8.52016 25.8523 8.31216 26.2203 7.89616C26.6043 7.48016 26.7962 6.96816 26.7962 6.36016C26.7962 5.75216 26.6043 5.24016 26.2203 4.82416C25.8523 4.40816 25.4042 4.20016 24.8762 4.20016H21.9963Z" fill="#333333"/>
<path d="M46.8955 15.2162C45.1995 16.8962 43.1355 17.7362 40.7035 17.7362C38.2715 17.7362 36.2075 16.8962 34.5115 15.2162C32.8155 13.5362 31.9675 11.4642 31.9675 9.00016C31.9675 6.53616 32.8155 4.46416 34.5115 2.78416C36.2075 1.10416 38.2715 0.26416 40.7035 0.26416C43.1355 0.26416 45.1995 1.10416 46.8955 2.78416C48.5915 4.46416 49.4395 6.53616 49.4395 9.00016C49.4395 11.4642 48.5915 13.5362 46.8955 15.2162ZM37.1995 12.6002C38.1435 13.5282 39.3115 13.9922 40.7035 13.9922C42.0955 13.9922 43.2555 13.5282 44.1835 12.6002C45.1275 11.6722 45.5995 10.4722 45.5995 9.00016C45.5995 7.52816 45.1275 6.32816 44.1835 5.40016C43.2555 4.47216 42.0955 4.00816 40.7035 4.00816C39.3115 4.00816 38.1435 4.47216 37.1995 5.40016C36.2715 6.32816 35.8075 7.52816 35.8075 9.00016C35.8075 10.4722 36.2715 11.6722 37.1995 12.6002Z" fill="#333333"/>
<path d="M63.4816 17.7362C61.7696 17.7362 60.3376 17.3682 59.1856 16.6322C58.0496 15.8802 57.2416 14.8642 56.7616 13.5842L60.0736 11.6642C60.7456 13.2162 61.9216 13.9922 63.6016 13.9922C65.1216 13.9922 65.8816 13.5362 65.8816 12.6242C65.8816 12.1282 65.6336 11.7442 65.1376 11.4722C64.6576 11.1842 63.7456 10.8562 62.4016 10.4882C61.6976 10.2962 61.0816 10.0802 60.5536 9.84016C60.0256 9.60016 59.5056 9.28816 58.9936 8.90416C58.4976 8.50416 58.1136 8.00816 57.8416 7.41616C57.5856 6.82416 57.4576 6.14416 57.4576 5.37616C57.4576 3.82416 58.0096 2.58416 59.1136 1.65616C60.2336 0.72816 61.5616 0.26416 63.0976 0.26416C64.4736 0.26416 65.6896 0.59216 66.7456 1.24816C67.8016 1.88816 68.6336 2.82416 69.2416 4.05616L66.0016 5.95216C65.6976 5.31216 65.3216 4.83216 64.8736 4.51216C64.4256 4.17616 63.8336 4.00816 63.0976 4.00816C62.5216 4.00816 62.0736 4.13616 61.7536 4.39216C61.4496 4.63216 61.2976 4.92816 61.2976 5.28016C61.2976 5.69616 61.4896 6.05616 61.8736 6.36016C62.2736 6.66416 63.0896 7.00016 64.3216 7.36816C64.9936 7.57616 65.5136 7.74416 65.8816 7.87216C66.2496 8.00016 66.7136 8.21616 67.2736 8.52016C67.8496 8.80816 68.2816 9.12016 68.5696 9.45616C68.8736 9.77616 69.1376 10.2082 69.3616 10.7522C69.6016 11.2802 69.7216 11.8882 69.7216 12.5762C69.7216 14.1762 69.1456 15.4402 67.9936 16.3682C66.8416 17.2802 65.3376 17.7362 63.4816 17.7362Z" fill="#333333"/>
<path d="M77.8834 0.60016C79.5314 0.60016 80.9234 1.16016 82.0594 2.28016C83.1954 3.40016 83.7634 4.76016 83.7634 6.36016C83.7634 7.96016 83.1954 9.32016 82.0594 10.4402C80.9234 11.5602 79.5314 12.1202 77.8834 12.1202H75.3634V17.4002H71.5234V0.60016H77.8834ZM77.8834 8.52016C78.4754 8.52016 78.9634 8.31216 79.3474 7.89616C79.7314 7.48016 79.9234 6.96816 79.9234 6.36016C79.9234 5.75216 79.7314 5.24016 79.3474 4.82416C78.9634 4.40816 78.4754 4.20016 77.8834 4.20016H75.3634V8.52016H77.8834Z" fill="#333333"/>
<path d="M94.6722 17.4002L93.8322 14.7602H87.5922L86.7522 17.4002H82.5522L88.2642 0.60016H93.1602L98.8722 17.4002H94.6722ZM88.7442 11.1602H92.6802L90.7122 4.99216L88.7442 11.1602Z" fill="#333333"/>
</g>
<defs>
<filter id="filter0_d_2_1734" x="0" y="0.26416" width="102.872" height="25.472" filterUnits="userSpaceOnUse" color-interpolation-filters="sRGB">
<feFlood flood-opacity="0" result="BackgroundImageFix"/>
<feColorMatrix in="SourceAlpha" type="matrix" values="0 0 0 0 0 0 0 0 0 0 0 0 0 0 0 0 0 0 127 0" result="hardAlpha"/>
<feOffset dy="4"/>
<feGaussianBlur stdDeviation="2"/>
<feComposite in2="hardAlpha" operator="out"/>
<feColorMatrix type="matrix" values="0 0 0 0 0 0 0 0 0 0 0 0 0 0 0 0 0 0 0.25 0"/>
<feBlend mode="normal" in2="BackgroundImageFix" result="effect1_dropShadow_2_1734"/>
<feBlend mode="normal" in="SourceGraphic" in2="effect1_dropShadow_2_1734" result="shape"/>
</filter>
</defs>
</svg>
